<mxfile host="app.diagrams.net" agent="Mozilla/5.0 (Windows NT 10.0; Win64; x64) AppleWebKit/537.36 (KHTML, like Gecko) Chrome/130.0.0.0 YaBrowser/24.12.0.0 Safari/537.36" version="26.0.11">
  <diagram name="Страница — 1" id="CBrh_XQfC34lc3lk8EMb">
    <mxGraphModel dx="1434" dy="791" grid="1" gridSize="10" guides="1" tooltips="1" connect="1" arrows="1" fold="1" page="1" pageScale="1" pageWidth="827" pageHeight="1169" math="0" shadow="0">
      <root>
        <mxCell id="0" />
        <mxCell id="1" parent="0" />
        <mxCell id="1wqp6ge5zz9EuwTvqj5h-1" value="Сайт риэлторских услуг с возможностью планирования оффлайн встреч" style="rounded=0;whiteSpace=wrap;html=1;fontSize=9;" parent="1" vertex="1">
          <mxGeometry x="360" y="1000" width="120" height="80" as="geometry" />
        </mxCell>
        <mxCell id="1wqp6ge5zz9EuwTvqj5h-27" value="" style="edgeStyle=orthogonalEdgeStyle;rounded=0;orthogonalLoop=1;jettySize=auto;html=1;exitX=1;exitY=0.5;exitDx=0;exitDy=0;" parent="1" source="1wqp6ge5zz9EuwTvqj5h-3" target="1wqp6ge5zz9EuwTvqj5h-7" edge="1">
          <mxGeometry relative="1" as="geometry">
            <Array as="points">
              <mxPoint x="600" y="930" />
              <mxPoint x="640" y="930" />
            </Array>
          </mxGeometry>
        </mxCell>
        <mxCell id="1wqp6ge5zz9EuwTvqj5h-3" value="Главная страница" style="rounded=0;whiteSpace=wrap;html=1;fontSize=9;" parent="1" vertex="1">
          <mxGeometry x="520" y="920" width="80" height="40" as="geometry" />
        </mxCell>
        <mxCell id="1wqp6ge5zz9EuwTvqj5h-7" value="Просмотр доступных предложений покупки недвижимости" style="rounded=0;whiteSpace=wrap;html=1;fontSize=9;" parent="1" vertex="1">
          <mxGeometry x="580" y="830" width="80" height="60" as="geometry" />
        </mxCell>
        <mxCell id="1wqp6ge5zz9EuwTvqj5h-29" value="" style="endArrow=classic;html=1;rounded=0;exitX=1;exitY=0.5;exitDx=0;exitDy=0;" parent="1" edge="1" source="1wqp6ge5zz9EuwTvqj5h-1">
          <mxGeometry relative="1" as="geometry">
            <mxPoint x="520" y="1040" as="sourcePoint" />
            <mxPoint x="560" y="960" as="targetPoint" />
            <Array as="points">
              <mxPoint x="560" y="1040" />
            </Array>
          </mxGeometry>
        </mxCell>
        <mxCell id="1wqp6ge5zz9EuwTvqj5h-39" value="" style="edgeStyle=orthogonalEdgeStyle;rounded=0;orthogonalLoop=1;jettySize=auto;html=1;exitX=0;exitY=0.25;exitDx=0;exitDy=0;" parent="1" source="1wqp6ge5zz9EuwTvqj5h-40" edge="1">
          <mxGeometry relative="1" as="geometry">
            <mxPoint x="190" y="890" as="targetPoint" />
            <Array as="points">
              <mxPoint x="190" y="930" />
            </Array>
          </mxGeometry>
        </mxCell>
        <mxCell id="1wqp6ge5zz9EuwTvqj5h-40" value="Админ-панель" style="rounded=0;whiteSpace=wrap;html=1;fontSize=9;" parent="1" vertex="1">
          <mxGeometry x="240" y="920" width="80" height="40" as="geometry" />
        </mxCell>
        <mxCell id="1wqp6ge5zz9EuwTvqj5h-42" value="" style="endArrow=classic;html=1;rounded=0;exitX=0;exitY=0.5;exitDx=0;exitDy=0;" parent="1" source="1wqp6ge5zz9EuwTvqj5h-1" edge="1">
          <mxGeometry relative="1" as="geometry">
            <mxPoint x="280" y="950" as="sourcePoint" />
            <mxPoint x="280" y="960" as="targetPoint" />
            <Array as="points">
              <mxPoint x="280" y="1040" />
              <mxPoint x="280" y="1000" />
              <mxPoint x="280" y="980" />
            </Array>
          </mxGeometry>
        </mxCell>
        <mxCell id="1wqp6ge5zz9EuwTvqj5h-43" value="Админ" style="edgeLabel;html=1;align=center;verticalAlign=middle;resizable=0;points=[];" parent="1wqp6ge5zz9EuwTvqj5h-42" vertex="1" connectable="0">
          <mxGeometry x="0.061" y="-3" relative="1" as="geometry">
            <mxPoint x="-31" y="3" as="offset" />
          </mxGeometry>
        </mxCell>
        <mxCell id="5pQOecTv3frYaSSK4TZ5-2" value="Оформить запись на оффлайн встречу" style="rounded=0;whiteSpace=wrap;html=1;fontSize=9;" parent="1" vertex="1">
          <mxGeometry x="520" y="565" width="80" height="40" as="geometry" />
        </mxCell>
        <mxCell id="5pQOecTv3frYaSSK4TZ5-30" value="" style="edgeStyle=orthogonalEdgeStyle;rounded=0;orthogonalLoop=1;jettySize=auto;html=1;" parent="1" source="5pQOecTv3frYaSSK4TZ5-8" target="5pQOecTv3frYaSSK4TZ5-2" edge="1">
          <mxGeometry relative="1" as="geometry" />
        </mxCell>
        <mxCell id="5pQOecTv3frYaSSK4TZ5-8" value="&lt;font style=&quot;font-size: 10px;&quot;&gt;Детальный просмотр любого доступного предложения&lt;/font&gt;" style="swimlane;fontStyle=0;childLayout=stackLayout;horizontal=1;startSize=80;horizontalStack=0;resizeParent=1;resizeParentMax=0;resizeLast=0;collapsible=1;marginBottom=0;whiteSpace=wrap;html=1;" parent="1" vertex="1">
          <mxGeometry x="510" y="640" width="100" height="170" as="geometry" />
        </mxCell>
        <mxCell id="5pQOecTv3frYaSSK4TZ5-11" value="Описание недвижимости" style="text;strokeColor=default;fillColor=none;align=left;verticalAlign=middle;spacingLeft=4;spacingRight=4;overflow=hidden;points=[[0,0.5],[1,0.5]];portConstraint=eastwest;rotatable=0;whiteSpace=wrap;html=1;fontSize=10;" parent="5pQOecTv3frYaSSK4TZ5-8" vertex="1">
          <mxGeometry y="80" width="100" height="30" as="geometry" />
        </mxCell>
        <mxCell id="5pQOecTv3frYaSSK4TZ5-25" value="Документация недвижимости" style="text;strokeColor=default;fillColor=none;align=left;verticalAlign=middle;spacingLeft=4;spacingRight=4;overflow=hidden;points=[[0,0.5],[1,0.5]];portConstraint=eastwest;rotatable=0;whiteSpace=wrap;html=1;fontSize=10;" parent="5pQOecTv3frYaSSK4TZ5-8" vertex="1">
          <mxGeometry y="110" width="100" height="30" as="geometry" />
        </mxCell>
        <mxCell id="5pQOecTv3frYaSSK4TZ5-17" value="Видео/фотоматериалы" style="text;strokeColor=default;fillColor=none;align=left;verticalAlign=middle;spacingLeft=4;spacingRight=4;overflow=hidden;points=[[0,0.5],[1,0.5]];portConstraint=eastwest;rotatable=0;whiteSpace=wrap;html=1;fontSize=10;" parent="5pQOecTv3frYaSSK4TZ5-8" vertex="1">
          <mxGeometry y="140" width="100" height="30" as="geometry" />
        </mxCell>
        <mxCell id="5pQOecTv3frYaSSK4TZ5-13" value="" style="edgeStyle=orthogonalEdgeStyle;rounded=0;orthogonalLoop=1;jettySize=auto;html=1;exitX=0;exitY=0.5;exitDx=0;exitDy=0;" parent="1" source="1wqp6ge5zz9EuwTvqj5h-3" edge="1">
          <mxGeometry relative="1" as="geometry">
            <mxPoint x="440" y="880" as="sourcePoint" />
            <mxPoint x="480" y="890" as="targetPoint" />
            <Array as="points">
              <mxPoint x="520" y="930" />
              <mxPoint x="480" y="930" />
            </Array>
          </mxGeometry>
        </mxCell>
        <mxCell id="5pQOecTv3frYaSSK4TZ5-14" value="Просмотр доступных предложений аренды недвижимости" style="rounded=0;whiteSpace=wrap;html=1;fontSize=9;" parent="1" vertex="1">
          <mxGeometry x="460" y="830" width="80" height="60" as="geometry" />
        </mxCell>
        <mxCell id="5pQOecTv3frYaSSK4TZ5-15" value="" style="endArrow=classic;html=1;rounded=0;exitX=0.25;exitY=0;exitDx=0;exitDy=0;entryX=-0.005;entryY=0.236;entryDx=0;entryDy=0;entryPerimeter=0;" parent="1" target="5pQOecTv3frYaSSK4TZ5-8" edge="1">
          <mxGeometry width="50" height="50" relative="1" as="geometry">
            <mxPoint x="480" y="830" as="sourcePoint" />
            <mxPoint x="480" y="740" as="targetPoint" />
            <Array as="points">
              <mxPoint x="480" y="680" />
            </Array>
          </mxGeometry>
        </mxCell>
        <mxCell id="5pQOecTv3frYaSSK4TZ5-24" style="edgeStyle=orthogonalEdgeStyle;rounded=0;orthogonalLoop=1;jettySize=auto;html=1;" parent="1" source="1wqp6ge5zz9EuwTvqj5h-7" edge="1">
          <mxGeometry relative="1" as="geometry">
            <mxPoint x="610" y="680" as="targetPoint" />
            <Array as="points">
              <mxPoint x="640" y="680" />
              <mxPoint x="610" y="680" />
            </Array>
          </mxGeometry>
        </mxCell>
        <mxCell id="-vy7u5Mipeto_UeYXmVJ-1" value="" style="edgeStyle=orthogonalEdgeStyle;rounded=0;orthogonalLoop=1;jettySize=auto;html=1;exitX=1;exitY=0.25;exitDx=0;exitDy=0;" edge="1" parent="1" source="1wqp6ge5zz9EuwTvqj5h-40">
          <mxGeometry relative="1" as="geometry">
            <mxPoint x="370" y="890" as="targetPoint" />
            <Array as="points">
              <mxPoint x="370" y="930" />
            </Array>
            <mxPoint x="420" y="930" as="sourcePoint" />
          </mxGeometry>
        </mxCell>
        <mxCell id="-vy7u5Mipeto_UeYXmVJ-2" value="Создание/редактирование/удаление предложений" style="rounded=0;whiteSpace=wrap;html=1;fontSize=9;" vertex="1" parent="1">
          <mxGeometry x="170" y="830" width="80" height="60" as="geometry" />
        </mxCell>
        <mxCell id="-vy7u5Mipeto_UeYXmVJ-3" value="Обработка запросов на оффлайн встречу" style="rounded=0;whiteSpace=wrap;html=1;fontSize=9;" vertex="1" parent="1">
          <mxGeometry x="310" y="830" width="80" height="60" as="geometry" />
        </mxCell>
      </root>
    </mxGraphModel>
  </diagram>
</mxfile>
